/* XPM */
static char *southik1684719742[] = {
/* columns rows colors chars-per-pixel */
"64 64 166 2 ",
"   c #3A0700",
".  c #3D0B00",
"X  c #430D00",
"o  c #451300",
"O  c #4B1500",
"+  c #471903",
"@  c #4C1A02",
"#  c #4D1C09",
"$  c #531D04",
"%  c #541E09",
"&  c #552105",
"*  c #592306",
"=  c #5E2907",
"-  c #55230A",
";  c #5B250C",
":  c #57280E",
">  c #5E2A0C",
",  c #572711",
"<  c #5A2610",
"1  c #5D2A13",
"2  c #5E2E1A",
"3  c #5F3015",
"4  c #5F301C",
"5  c #60270C",
"6  c #622B0E",
"7  c #612711",
"8  c #632C13",
"9  c #682F12",
"0  c #612E19",
"q  c #653215",
"w  c #6A3416",
"e  c #6E3814",
"r  c #65321B",
"t  c #6B341B",
"y  c #67381E",
"u  c #6D391C",
"i  c #723B1D",
"p  c #783D1D",
"a  c #663621",
"s  c #693521",
"d  c #6D3B22",
"f  c #6E3F2B",
"g  c #743D23",
"h  c #783C20",
"j  c #743E28",
"k  c #6F4022",
"l  c #754224",
"z  c #7A4425",
"x  c #75432B",
"c  c #7B452B",
"v  c #774A2D",
"b  c #7D492C",
"n  c #774731",
"m  c #7B4630",
"M  c #7D4A33",
"N  c #7F4F3B",
"B  c #7F5035",
"V  c #7F5139",
"C  c #82462A",
"Z  c #824C2D",
"A  c #894D2D",
"S  c #85512C",
"D  c #8C522E",
"F  c #844D33",
"G  c #894E33",
"H  c #834E38",
"J  c #884E38",
"K  c #865134",
"L  c #8B5434",
"P  c #8E5836",
"I  c #85533A",
"U  c #8C553A",
"Y  c #87583E",
"T  c #8E593B",
"R  c #915635",
"E  c #935A36",
"W  c #90573A",
"Q  c #935C3C",
"!  c #995D3A",
"~  c #96603E",
"^  c #9A623E",
"/  c #895641",
"(  c #8D5C43",
")  c #8D5F49",
"_  c #935D42",
"`  c #995F42",
"'  c #915F48",
"]  c #8F6046",
"[  c #966144",
"{  c #9B6444",
"}  c #9E6944",
"|  c #95634A",
" . c #9C654A",
".. c #96684D",
"X. c #9D6A4B",
"o. c #9B6752",
"O. c #9C6B52",
"+. c #9F7054",
"@. c #9F725B",
"#. c #A16644",
"$. c #A26B45",
"%. c #A96E46",
"&. c #A0674A",
"*. c #A36C4C",
"=. c #A96E4C",
"-. c #A57046",
";. c #A5714D",
":. c #AA734E",
">. c #AC794E",
",. c #A46E51",
"<. c #A86F53",
"1. c #A57253",
"2. c #AB7553",
"3. c #AD7955",
"4. c #A5745A",
"5. c #AC765A",
"6. c #A77958",
"7. c #AD7A5B",
"8. c #B07653",
"9. c #B17B55",
"0. c #B0775A",
"q. c #B27C5C",
"w. c #B87D5B",
"e. c #A77760",
"r. c #AD7B61",
"t. c #B37D61",
"y. c #B4815C",
"u. c #B8845F",
"i. c #AF8164",
"p. c #B58263",
"a. c #B98464",
"s. c #B78967",
"d. c #BB8965",
"f. c #B68469",
"g. c #BB8569",
"h. c #B78A6D",
"j. c #BC8A6B",
"k. c #B68870",
"l. c #BD8C72",
"z. c #BF9072",
"x. c #C18D6D",
"c. c #C3916E",
"v. c #C9936F",
"b. c #C28E72",
"n. c #C49273",
"m. c #C99574",
"M. c #CA9876",
"N. c #C5957A",
"B. c #C9957A",
"V. c #CD9B7D",
"C. c #D09E7D",
"Z. c #CC9C82",
"A. c #CE9F8B",
"S. c #D19F82",
"D. c #CEA184",
"F. c #D4A284",
"G. c #D5A68B",
"H. c #DBA68C",
"J. c #D7A88C",
"K. c #DCAA8D",
"L. c #DCAC92",
"P. c #DDAE9A",
"I. c #DFB092",
"U. c #E1AF94",
"Y. c #E1B392",
"T. c #E3B498",
/* pixels */
":.:.8.;.&.*.Q q.l * 1.1.,.( X 1.x.=.*.*.} :.3.u.u.y.-.>.2.:.-.-.X.1.,.* <._ G A W W W _ ` ` ` &.2.w.t.a.t.% _ C.a.w.;.-.>.3.u.u.",
"2.:.9.9.q.:.;.p.b K p.O.4.j.8 p.a.2.3.3.>.y.y.9.y.y.y.y.9.9.3.1.;.2.2.6 2.E ` ` #.,.<.<.8.0.2.0.*.8.0.,.t.w <.B.3.9.y.y.y.y.a.a.",
"8.9.2.8.9.W { p.b S 1.[ [ t.> g.0.:.2.=.;.3.3.3.y.>.~ ~ ;.y.w.;.L 7.5.u ` _  .<.&.<.&.` &.,.&.*.&.&.&. .t.t ,.g.;.:.;.>.9.8.3.1.",
"w.9.8.9.*.E *.p.S w 2.} ,.t.8 *.0.=.2.2.2.7.3.y.y.u.y.y.y.w.*.Q X.7.2.; _ {  .P #.<.<.<.5.2.,.,.0.<.` <.r.8 ` t.*.:.;.:.:.2.q.q.",
"#.2.*.} ;.1.&.2.C 8 p.*.,.t.8 Q _ { ` { *.*.*.2.;.1.5.2.2.:.*.*.,. .&.* _ { ` _ t.t.0.5.5.5.5.q.5.<.&.5.5.t W ` _ { { #. .#.=.<.",
"*. .*.*. .*.&.,.b > { [ ,.,.> _ L E Q W _ {  .} X.} } } &. . ._ T _ O.- g J o.t.5.5.5.0.0.,.,.5.2.5.r.5.5.8 J U Q E W Q { { ` Q ",
"2.*.1.*.1.*.*.t.Z 6 c _ 7.4.r [ #.&.&.&.} ,.4.2.4.1.2.6.1.,.*.X.,.O.O.$ d j o.5.,.o.&.&. .| *.1.<.<.5.,.` t J &. .&.,.<.,.&.<.5.",
"t w r : 5 8 w q X o & $ 1 8   ; 6 6 6 w w q w w t u t t i u r 6 2 w ; X % $ < ; 7 % % ; @ O $ % $ & < 8 < X 5 t t w 9 w w 9 t 9 ",
"U + + ( X._ I M I U M l x d - m Q Z P L I K X o + : ; , > 3 q > q y d x w 1 r -   u b.j.5.{ T L L ] T q L 1.X.Y Q ,.T X u  .T Q ",
"L.d - r.1.'  .4.1.5.t.r.4.4.| e.*. . .*. .p.: q ,.p.p.r.j.h.s.p.p.g.p.d.i.7.7.U + d b.t.7.q.t.t.s.h.;...z.p.7.p.7.p.K.q t.G.s.p.",
"Z.d + 1.( o._ T [ T U |  .O.( U Z C Z U K 7.1 I k.4.6.s.p.1.1.4.1.*.,.1.4.5.7...$ u g.1.,.[  .} +.+...X.X...1.X.O.X.l.r f.s.1.4.",
"N.@ : N.' { _ Q U Q { } _ T ( T L Z W U H [ ; ..l.X.4.6.X.1.6.;.O.{ ;.4.1.O.1.X.o g C.` } 3.;.q.y.y.i.y.;.P l ~ 4.*.p.q 4.n.;.3.",
"o.+ K r.F G E L L Q L ! _ T Z z w 7 z A T ` ;  .j.5.r.2.2.7.1.2.;.;.3.3.4.1.5.X.o 2.s.{ } *.:.*.6.1.1.} $.L = S ,.| 1.8 } n.6.y.",
"] > 4.[ W L P ! E ! E Q { Q Z C J A R R W _ % J 7.,.5.p.p.a.w.d.a.y.a.w.4.;.7.1.* j.*.} #.;.$.*.6.X.6.3.^ #.} ~ Q ,.5.8 L D.d.3.",
"q.t 2.Q G E #.! ! ! E ! ! E D L A A C C C J % Z t.5.p.q.2.1.:.;.:.;.3.6.2.;.3.~ * M.*.} ;.3.w.:.0.1.;.:.{ ! #.#.&. .t.i g m.2.q.",
"s.w { 1._ #.#.&.#.#.=.=.#. .! ` W _ U J _ _ 8 c b.g.t.7.1.T Z { } 1.1.*.3.4.X.3 + q.d.1.y.q.:.2.1.2.,.;.*.*.*.2.0.t.p.p u a.x.q.",
"x @ 3 k y 1 - : - $ $ - $ - : , 0 4 + , 1 - o + # # # + O   . + + . . . + . . .   3 x d r - - 8 > @ + O % - # , 8 g y : > t k u ",
"X.......i.] + M O.] ( Y ] Y I B o # f v N M n n f v N M / ' ' ( ] ..y . ] @.e.e.r.e.+.X.( | ( ( ' ' ( | 0 + H M I M B ~ ,.X.[ ..",
"C.C.C.C.I.K.v Z.Y.N.D.D.D.z.M.J.: v I.I.Y.I.K.F.n.l.B.p.f.j.d.j.z.I.s.v I.D.z.z.z.V.F.C.j.p.d.c.h.l.l.L.( , H.G.l.p.7.7.q.q.7.p.",
"d.s.d.j.j.N.1 p.z.X.;.1.;...i.C.u B F.p.6.7.p.d.m.y.7.&.,.;.:.*...z.y.q C.i.X.1.X.6.6.3.u.9.1.2.2.;.O.B.O.& b.X.X.1.3.2.2.3.3.2.",
"} -.:.1.7.p.& -.v.1.1.>.7.a.j.M.r F b.,.3.q.p.w.1.*.*.1.2.&.2.*.;.6...& j.t.} X...;.6.9.y.q.w.y.y.d.j.M.L & x.*.;.;.;.-.;.$.%.-.",
"y.y.3.;.1.4.@ L j.>.>.>.2.y.u.d.8 I a.=.q.3.2.*.;.:.*.&.E E 2.8.1.;.~ @ 7.x.5.*.} X.;.y.9.3.w.;.-.;.3.c.k 6 d.$.} } $.-.-.$.} } ",
"-.-.3.3.2.3.* K M.y.>.$.~ ~ <.7.$ L p.*.*.%.%.$.$.$.#.%.=.=.9.%.:.q.[ $ ;.d.9.6.2.:.:.3.%.} >.^ ;.} } s.w > y.} } -.$.$.} $.;.%.",
">.y.3.2.2.3.$ L j.3.6.$.} $.5.{ O G p.&.;.-.-.$.-.^ #.#.=.:.w.:.;.9.~ + 2.d.3.;.;.9.:.:.-.^ ;.-.$.;.;.3.e = y.;.-.$.%.%.$.} *.#.",
"9.;.*.&.<.G @ Q 0.#.*.*.*.2.t.5.5 G g.*.2.2.9.:.#.#.;.2.1.q.:.2.;.2.i $ 2.q.X.5.;.p.1.1.;.2.3.3.0.2.0.t.G % t.5.2.*.8.8.*.$.=.&.",
"*.*.{ &.` j % U t.W G _ *.*.t.t.t j t.t.<.5.q.0.2.2.2.p.t.q.2.q.2.Q z $ ,.t.U X.5.t.p.y.y.p.7.q.2.1.w.t.J % <.t.*.6.q.0.q.<.2.2.",
"/ ` ` _ J J 5 7 W W P G _  .1.,.r s ' _ W W _ I J I J K U T Q ~ P m c O M o.o.Y ' O.4.r.4.,.7.O.*.5.t.r.F 7 _ &._  .` ` ` W W J ",
"p t 8 9 r t 7 t 8 $ @ @ ; 8 - 1 % 7 < % $ $ @ O o $ O $ & ; * & $ 7 % $ # o - 1 # O , 8 - & 1 @ O X @ % < % 7 < - 9 * * $ 9 7 9 ",
"<.&.$ 6 c W m.H.m.q.X.;.1.1.B [ ` 5.2.2.1._ 5 t F J C ` _ { P ~ _ ` Q ` i 5.5. .I $ g K F ! S Z z U M 1 % , 8 > u w K Q $ E ,.U ",
"J &.9 K 5.x.b.p.q.q.y.p.7.p.} 6.&.` #.#.*.*.5 _ J F h U G _ ~ ^ Q E A W G <.Z l  .> L x.d.a.7.q.q.j.n.b.7.X.' X.X.4.2.{ 5 ` Q J ",
"G E 8 W 5.2.,.2.2.;.X.;.;.;.[ [ 0.{ ` { { &.$ G J F J J G W W D W G G L C g h g F 5 G S.g.2.9.2.3.5.4.s.Z.F.B.p.q.7.;.T * T ` Q ",
"Z P 5 K q.5.q.2.1.2.;.;.6.6.y.[ R #.E { #.*.5 G G j J W T P W P E #.Q W W I z c c 5 L M.5.2.2.6.6.3.6.7.t.2.r.3.7.4.6.*.6 L { c ",
"[ 1.= L 3.3.2.6.y.>.3.y.9.q.u.3.L =.%.&.*.*.w z g L I _ Q  .{  .,.*.&. .{ { Q I _ & T V.1.2.2.1.7.q.4.7.7.7.y.i.7.6.p.X.8 F Z { ",
"} T 6 _ ;.X.;.3.1.u.3.6.3.2.3.y.9.! &.*.` :.8 w ,.Z F T K _ _ Q _ _ ` _ ( T [ [ U ; } M.q.} } 2.1.1.7.1.1.X.i.7.7.+.t.X.8 w t.[ ",
"T ,.C U 7.r.X.5.u.6.p.7.q.g.q.p.x.x.t.*.0.5.= | o.b b M I ( / _ U J W _ _ T K B _ c I b.5.} ,.1.4.4.O.5.7.4.| 1.4.[ ,._ %  .g.J ",
"u r @ u M g G F b v b F _ Z c l A G c z c c + - < 0 % < r < 0 u d t 7 ; $ @ $ - 0 O % $ O @ @ % - : : & # $ + & & + O > O 8 j Z ",
"9 9 W G t g g g q $ c x b d i g t b Z b K I Y Y ' _ H @ + J b M C C Z J J F c j c c b c b l c z @ @ a # 1 g I - $ _ I h G G G F ",
"t.v.a.0.t.q.5.t.X.> g.,.} 5.2.q.d.d.d.p.s.n.C.V.B.l.F.M l H.r.5.q.0.q.p.x.x.j.p.g.a.g.q.5.q.1.j.g I f.,.4.r.B.X.z K.q.q.2.<.t.t.",
"8.9.%.=.3.2.1.q.#.i 5.{ } } $.;.;.-.1.1.6.6.7.3.6.6.t.b I c.:.3.=.2.9.9.:.2.2.2.} 1.9.2.y.! 2.7.l Q O.X.X.*.7.P z v.*.2.8.q.8.=.",
":.:.9.:.#.=.2.3.&.q ;. .^ } ;.} 3.y.7.y.1.;.y.7.6.;.d.l Z x.} 3.=.:.:.>.9.w.9.2.} 3.9.6.*.S $.a.i K *.X.1.X.p.P p m.%.:.$.%.8.9.",
"$.%.:.:.:.2.2.2.&.* #.<. .:.} *.6.>.2.3.9.X.1.1.p.x.v.z z =.^ *.$.#.#.$.:.2.;.2.>.;.>.;.} *.#.3.u l q.0.2.2.w.R e =.^ $.} %.$.$.",
"%.:.*.*.*.2.&. .` * ` {  .&. . .} P W { &.2.6.d.M.x.x.i g P Q W E ! ^ $.*.#.$.{ [ ~ } ;. .{ ^ :.i u *._ &.L  .U p Q W W Q ^ ~ ^ ",
";.,.*. .,.&.{ ,.<.% c L  .P _ &.,.,. .t.t.t.j.d.t.g.p.F c  ._ { { #.} ;.1.*.*.,.1.,.1.1.*.*.*.q.g t U | _ <.t.U u X.P &.[ { ;.;.",
"Y I / | / H H F j O t d L G _ _ T b c c g j m c I  .| & i P c c i l i i u c U L F H b b Z G J J ; ; 8 m F c _ 9 6 Q F F U T F K ",
"+ O X # # $ % 8 * $ 5 o X o O X   X . @ o X   $ ; 1 ; - - & + q q q $ & q & . u I c 8 % $ * 6 6 6 8 ; > @ $ u t t 9 u r X O d 8 ",
"l.o r Z.b.5.0.1.2.*.` ! W J U _ J T ,.5.5.g.- 4.D.f.f.p.j.T d.m.x.j.4.r.V.[ + X.n.q.1.4.q.2.0.2.q.q.0.5.F t.t.t.t.5.5.j.1 ' G.i.",
"P.4 +.G.7.[ { P L W L Q ` #.` ` ` { _  .1.j.> N.j.6.6.6.i.s.M.3.7.2.p.p.z.1.+ K 0.Q ~ Q ^ Q ! ^ { ~ { { $.} W W _  .Q 7.q p.n.1.",
"A.2 O.p.[ ~ ^  .} =.=.=.&.#.{  .` Q P K T q.: p.j.+.7.7.y.d.2.;.1.4.;.[ j.;.. } 5.W ~ P L L E Q Q #.` #.L D D z K W P 6.3 +.m.+.",
"r.+ o.1.=.$.#.#.$.%.$.{ ` { W Q F 9 C L W 0.* ;.j.4.6.3.2.2.;.} 1.&.}  .x.z $ a.^ D ^ E ^ E E ^ ! #.! ! A L p O i ! T 1.6 L M.1.",
"/ + ..5.^ D ! ! ! ! } { #.P L W ! G G G W <.8 Q F.7.6.6.;.*.:.*.&. .*.3.,.= b y.R R ^ ! D A W Q Q #. .&.} ! L A W Q ! { ; C m.7.",
"6.- [ ;.R E ^ E ! ! ~ E W P Q K P Q W U G &.q Z M.7.3.2.} { *.2.:.:.1.+.5.b [ 1.Q ~ ^ #.^ ~ ~ { Q ! } ! P L W P R L W #.w q s.;.",
"h.- K 7.Q L W [ W W Z I K A K G L L W U W ,.q i z.s.s.6.4.2.*.5.y.7.;.X.j.Y B j.~ ^ ;.;.#.-.;.X.+.1.;. .{ T W [ ` &.*.4.q ; p.s.",
"| - < I b x l 0 2 , - , 0 r 0 j j g c M H J 1 , v V V / ..N j | J H x I ( 1 1 | U U U M v K M x v M I / I Y / H H M ( / : - f V ",
"4 1 - 1 r b m N f , 4 a j n t 0 0 8 % % # @ ; 0 , - 3 3 2 2 s j 1 1 1 t a 2 , , : ; @ - 1 . + a d , + # , a - y n r x l x v M B ",
"z.p.7.p.b.F.l.L.k.2 o.A.Z.B.g.t.j.j.t.x.x.t.l.s.z.D.k.4 H B.t.<.p.1.r.7.i.i.7.p.t.p.q.p.f.B y A.Z.h...@.N.l.4 ..J.Z.V.D.D.M.D.V.",
"7.y.q.p.7.q.t.l.D., O.G.4.t.q.0.w.8.x.t.a.t.p.7.4.6.M.: v F.X.t.q.p.z.p.j.s.z.j.p.p.d.7.m.+.- G.z.e.i.i.7.G.k v K.n.N.c.j.p.y.y.",
";.%.*.:.*.2.6.5.f.1 B V.1.&.*.} 3.9.y.9.:.3.2.2.6.j.c.> z b.{ *.:.3.9.6.2.2.6.:.8.2.8.q.7.*.+ s.s.+.6.y.s.F.k b m.1.6.1.;.-.X.-.",
"} $.#.E ^ 9.q.*.p.: y N.7.2.$.#.;.>.9.:.:.3.9.3.d.d.j.q z b.Q ` ;.:.3.3.2.2.3.3.8.8.w.} [ T o 7.j.p.j.h.j.C.q Z s.} ;.-.$.%.-.} ",
"#.^ E ! %.2.0.5.1.1 q b.t.2.2.2.;.;.3.:.%.:.;.1.;.2.p.q F x.U G #.*.;.*.<.2.2.2.0.<.#.G L ..o | c.u.y.X.2.d.= K p. .*.&.*.;.*.$.",
":.2.:.8.w.w.8.2.p.> q n.p.t.2.w.2.*.%.*.} #.&.#.} 2.,.@ F g. .W L E { ;.2.2.&.{ R ` ! !  . .o X.c.1.X.X.;.;.@ S t. .*.%.$.*.#.%.",
"2.9.:.:.8.8.%.2.$.& i g.=.2.*.:.y.:.;.-.:.2.:.9.2.3.;.& c x.! L D Q ` ` ! P L D R R R A 1.Z o  .u.-.;.3.:.9.= z a.*.*.=.:.$.%.%.",
"q.q.9.9.8.:.:.8.Z = p j.*.{ 2.9.y.2.3.2.9.9.3.2.1.3.y.e t b.*.Q ~ ` ! _ Q T W ^ ! W ` !  .w O 5.y.~ ^ ;.2.x.e w a.=.:.:.8.%.%.%.",
"&.5.q.0.<.0.=.! P q 7 5.,.W *.1.p.g.s.t.w.p.q.1.4.7.6.y 1 t.5.r.t.5.5.4.<.,. .` ` ` J / U t o M q.Q L ;.t.a.g u q.*.,.,.2.*.=.=.",
"j d h g h h C Z j 8 < t g F j c b K I g g Z b u c M k - O % % ; < ; < < 1 7 8 8 9 9 8 7 7 % % s q u q w r C 8 0 x j h h z C C C "
};
