/* XPM */
static char *east__1_1684718970[] = {
/* columns rows colors chars-per-pixel */
"64 64 214 2 ",
"   c #591605",
".  c #541907",
"X  c #5D150D",
"o  c #561D09",
"O  c #5D1B0C",
"+  c #521705",
"@  c #5D1610",
"#  c #5D1E10",
"$  c #641806",
"%  c #691C06",
"&  c #64150C",
"*  c #6B160D",
"=  c #641B0C",
"-  c #6C1B0E",
";  c #711806",
":  c #741B0E",
">  c #7B1E0D",
",  c #73150B",
"<  c #651611",
"1  c #6B1712",
"2  c #641C13",
"3  c #6C1C13",
"4  c #651A1A",
"5  c #6C1D1A",
"6  c #731D14",
"7  c #7B1E14",
"8  c #741E19",
"9  c #5D200D",
"0  c #67250E",
"q  c #6B230B",
"w  c #74230D",
"e  c #7C220E",
"r  c #79280D",
"t  c #652213",
"y  c #6C2214",
"u  c #612817",
"i  c #662219",
"p  c #6C231A",
"a  c #6C281B",
"s  c #6E2C16",
"d  c #742314",
"f  c #7C2414",
"g  c #742915",
"h  c #7D2915",
"j  c #74241A",
"k  c #7C241A",
"l  c #742A1B",
"z  c #7C2B1B",
"x  c #773419",
"c  c #7C311C",
"v  c #692220",
"b  c #6C2C20",
"n  c #7F2620",
"m  c #742C20",
"M  c #7B2E25",
"N  c #7E3120",
"B  c #7F3920",
"V  c #821F14",
"C  c #83240E",
"Z  c #86280E",
"A  c #882D0E",
"S  c #832415",
"D  c #8B2515",
"F  c #842B15",
"G  c #8C2A15",
"H  c #83251A",
"J  c #8A241B",
"K  c #842B1C",
"L  c #8B2C1C",
"P  c #932511",
"I  c #932B15",
"U  c #992C16",
"Y  c #97271C",
"T  c #932D1C",
"R  c #9A2E1B",
"E  c #9C2713",
"W  c #873215",
"Q  c #8C3017",
"!  c #85321B",
"~  c #8C321D",
"^  c #88381D",
"/  c #933017",
"(  c #9E3117",
")  c #94331C",
"_  c #9C331D",
"`  c #97381C",
"'  c #9F391F",
"]  c #A62E15",
"[  c #AA3217",
"{  c #A3341D",
"}  c #AA331C",
"|  c #A5391E",
" . c #AC3B1D",
".. c #B13A1D",
"X. c #832721",
"o. c #8A2720",
"O. c #842C21",
"+. c #8C2D21",
"@. c #882F29",
"#. c #942E22",
"$. c #9A2E24",
"%. c #843224",
"&. c #8C3323",
"*. c #863A20",
"=. c #8D3A23",
"-. c #8C3229",
";. c #8C3A2D",
":. c #81342A",
">. c #943323",
",. c #9B3423",
"<. c #943923",
"1. c #9C3924",
"2. c #95362A",
"3. c #9B3529",
"4. c #94392B",
"5. c #9D3B2A",
"6. c #9A3C30",
"7. c #A33623",
"8. c #AA3623",
"9. c #A43B24",
"0. c #AB3C24",
"q. c #A33629",
"w. c #AC3628",
"e. c #A43C2A",
"r. c #AB3E2A",
"t. c #B23D25",
"y. c #B93E24",
"u. c #B2372F",
"i. c #B33E2B",
"p. c #BA3E2C",
"a. c #B13422",
"s. c #A33E31",
"d. c #AC3E31",
"f. c #B33E30",
"g. c #B5401E",
"h. c #9D402E",
"j. c #9E4326",
"k. c #9A4332",
"l. c #A74225",
"z. c #AD4125",
"x. c #A5412B",
"c. c #AC422B",
"v. c #AE4B2E",
"b. c #B34226",
"n. c #BA4325",
"m. c #BB4927",
"M. c #B4442B",
"N. c #BB452C",
"B. c #B64A2D",
"V. c #BC4A2D",
"C. c #A54232",
"Z. c #AD4332",
"A. c #AF4A32",
"S. c #AD4538",
"D. c #A7493A",
"F. c #B44532",
"G. c #BC4532",
"H. c #B54A33",
"J. c #BC4B33",
"K. c #B34A3B",
"L. c #BD4D39",
"P. c #B5453A",
"I. c #BE5135",
"U. c #B7513A",
"Y. c #BC513B",
"T. c #C24325",
"R. c #C64A26",
"E. c #C3462D",
"W. c #C34B2D",
"Q. c #CB4D2D",
"!. c #C5522E",
"~. c #C9512E",
"^. c #C24633",
"/. c #C84732",
"(. c #C34C33",
"). c #CA4E34",
"_. c #C34D3A",
"`. c #CB4E3C",
"'. c #D24D34",
"]. c #C35235",
"[. c #CB5234",
"{. c #CD5837",
"}. c #C4533B",
"|. c #CB543A",
" X c #C6593F",
".X c #CC593A",
"XX c #D35436",
"oX c #D05836",
"OX c #DB5B36",
"+X c #D2553B",
"@X c #DB543B",
"#X c #D45B3C",
"$X c #DB5B3C",
"%X c #DA623F",
"&X c #D2603C",
"*X c #D04E41",
"=X c #C45541",
"-X c #C85540",
";X c #C75943",
":X c #C95A42",
">X c #CD5E4A",
",X c #D15643",
"<X c #D45C42",
"1X c #DB5D42",
"2X c #E05E44",
"3X c #CE614A",
"4X c #D56141",
"5X c #DB6344",
"6X c #DA674B",
"7X c #DF694D",
"8X c #E76B4D",
"9X c #E46549",
"0X c #ED6D53",
"qX c #E36D53",
/* pixels */
"K F G K O.d >.7.e.,.q.c.9.9. X}.-X}.}. XY.=XF.9.c.r.F.r.z.c.r.q.,._ e.5.2.F x.c.r.r.r.Z.l.r.-X}.(.(.`._.G.L.c.8.c.e.e.S.0.r.r.L ",
"<.~ G h h w 7.t.9.M.i.J.G.V.7X{.).[.~.W.[.#XN.W.^.N.W.W.Q.[.|.N.l.9.9.>.K C 9.m.N.F.F.P.M.H..X^.(.V.^.F.i.m.r.M.E.t.b.(.].[.(.0.",
"d d 6 i j 3 #.7.{ | r.B.B.B.^.[ 9.r.M.B.N.N.r.c.0.0.V.(.(.J.G.F.&.O.O.z l 3 3.F.B.M.| 9._ r.M.7.7.7.r.0.0.9.,.S.B.r.| 0.r.i.F.e.",
"g s y u a 0 >.e.J.z.c.r.e.9.F.P.J.N.t.n.t.W.0.7.N.t.n.J.V.B.B.i.&.F ^ c ! h c.-X>XJ.7.,.I ,.c.c.n.t.0.t...n.| c.t.t.0.t...0.0._ ",
"d l j a j - ,.L.V.^.G.}.c.P 9.9.M.Z.e.9.B.F.,.6.S.c.{ 7.r.M.c.9.F ! ^ ! %.L c.:X].V.N.F.z.9.r.t.9.7.9.e.l.z._ 3.,.) e.Z.e.e.e.T ",
"t # 2 O p < 7 F J J J O.O.8 K O.Y K k j f K f N O.O.> S I L L F K f f d K f T _ #.#.2.G +.L #.H H j p p 5 p 3 2 d K L L f f H f ",
">.~ ) Q P.Y._.(.^.N.^.n.].}.(.|.#X,.d y f >.! d f e.1.9.0.0.9.9.0.| l.9.L.-X}.].E.(.].V.].|.].t.J.&.= 2 3 d d - f 1.l.{ ) / ) 9.",
">.~ _ Z 8.c.r.0.9.r.9.0.M.8.N.N.B.&.3 2 l N y 2 ; 5.1.9.z.r.9.z.z.z.z.R 8.9.0.0.t.F.F.8.{ M.r.9.8.F - b i t l t - 5.1.I ,.>.` l.",
"- 6 t 2 k f g k f D F O.S 6 8 K &.k < < y y y = 6 f O.H k K k k z K h : d d d d f d k z H h 6 j j 8 i i y , 6 k : k k O.K h K H ",
"(._.G.F.`.N.M.^.H.V. X}.W._.e.}.OX[.W.[.{.OX$X#X:X<X<X<X<X<X{.<X<X<X,X^._.G.N.G.p.G.L.G.-X:X0.;X).).(.|.|.+X1X1X&X%X<X#X#X#X#X{.",
"0.0.,.9.L.J.x.0.9. .b.z.g.].U N.G.N.i.P.G.G._.P.n.n.m.n.N.E.n.V.B.G.M.0.M.0.9.z.m.(.G.N.W.W.] V.^.B.M.i.N.B.J.J.z.F.P.J.N.r.r.7.",
"S L z = k d j 6 d d - j >.3.K >.3.<.>.<.,.<.>.F +.+.>.2.4.<.-.&.^ 4.O.7 K f 6 f j j 3 O.<.>.&.4.e.5.>.$.,.>.>.L T #.>.L J J X.n ",
"[.<XG.) { R _ { 1.( I 9.).XX<X<X.X{.<X#X#X#X+XN.#X1X%X%X5X5X%X[.5XqX|. .t.r.0.| ) _ G r.6X#X|.}.].]..X#X#X<X XB.OX[.R.Q.Q.Q.[.B.",
"V.N.,.G ,.` ` <.>.T o.+.t.} r.0.0.8.r.M.V.I.G.,.(.).(.^.(.(.(.r.J. Xc._ 9.' ' ) 5.>.L R N.n.N.J.n.V.(.V.W.V.c.) t.9.9.r.r.c.e.L ",
"t.t.9.>.9.) ` e.~ ` &.+.J.m.c.c.t.t.N.(./.).G.q._.(.N.J.J._.Y.r.n.J.0.8.Z.l.9.` F ~ 3.z.I.(.(.V.^._._.F.i.f.e.o.t.r.c.c.0.t.M.,.",
"b.M.>.K >.F F F I z.&.#.|.).c.0.r.0.N.].W.N.M.7.(.V.n.W.V.I.J.0.G.;XB.R ,.3.3.r > h.L | |.[.].E.t.W.].V.n.b.r.T i.8.9.r.8.w.e.G ",
"{ q.T e +.a 3 % e d g f 2.+.L T G G >.,.3.>.#.L #.V 2.>.,.,.>.L e.J.8.S K +.f 6 J % % D e.~ ~ Y I 7.R q.e.$.+.= H J +.X.X.k O.8 ",
"G +.L F #.3 H >.#.>.5.3.2.- - , y j d k S 5.,.) >.>.L ` 5.>.5.) T 3._ I 2.H L >.3.6.5.s.5.6 K k z K O.! e $.,.>.=.&.<.+.F H +.S ",
"].I.V.m.`.R G.+XE.E.(.`.^.I <.5.3.S.q._ E <X1X@X|.+X[.<X+X/.1XN.(.B.V.[.|.| J.{..X1X|.|.B.{ c.x.5.9.r.M.[ 0X0X6X2X+X).).N.N.B.| ",
"W.G.V.V.|.,.J.(.0.0. .t.B.I <.&.T ~ ~ >.f e.e.8.R T q.r.,.,.s.,.M.c.z.^._.U J.'.V.b.t.i.0.,.~ L F S / 5.C r.' 5.,.I I >.>.$.3.D ",
"^.J._.]._.L d.M.8.l.9.M.(.F g j F F ! %.> K L H F H F S f K k K i.H.H.(.=XF e.P.].c.B.n.i.F d j ~ K ! c g F S L K f f K k z O.k ",
"{ T 0.c.n.P 8.B.i.M.N.(.;XF w c %.&.&.K G x.Z.8.j.3.~ ` ` <.>.) 8.0.0.i.G.L e.L.'.].}.`.F.w x *.&.2.H h &.c.r.1.5.3.~ ~ L ~ &.! ",
"z 3 H G Y k +.>.T L #.3.5.- 2 j y 2 y l d M l d 3 O   i t y j 2 O.H G +.>.K +.3.q.e.9.d.5.- y 3 u l 5 j j 6 = o 9 9   = 3 y y 3 ",
"f j 6.h.r.k.C.l.' ) 1.7.r.5.C.e.9.l.9.3.H K 3 - k k 6 k k f 7 H k f C.h.e.C.r.c.c.l.e.e.d.e.e.e.9.0.,.&.6 8 3 i : K k X.H H 7 H ",
"W. .#X0X8X8X9X5X$X@X'.OX$X[.XX$X$XXX:X3X7._ 9.M.M.F.8.L.G.M._ e.M.| [.1X9X$XOX|.XXXXQ.$XXXW.XX$X@X).(.G.I 1.' 9.i.(.J.V.G.r.N.J.",
"5.#.5.C.,._ 8.} e.>.5.e.e.5.R >.9.l.e.e.D L._.G.N.N.n.(.W.B.G >.s.L L L D G T G L L L 2.L L +.F <.~ &.>.G K.G.(.W.W.[.N.V.M._ e.",
"4 v i 2 = z S.3.8.) _ ,.1.9._ 9.r.e.e.c.{ F.W.(.^.W._.^.M.l.* 3 6 d & O = z 6.2.T >.>.R R ,.e.q.5.) ,.9.R J.(.).^.W.(.V.c.5.: j ",
"K =.^ W A ' ].N.H.0.{ B.I.J.J.J.^.`.}.G.} N.W.E.m.J.[.W.B.H.K :.G %.&.! K R i.a.q._ _ 7.r.M._.}.*X`._._.t.(.W.E.].].Q.(.F.9.%.;.",
"l t 3 j 6 , d k H H H S S 7 H L r ! ! r > <.3.` T 5.5.,.' >.- X # + # # 2 & = - : d d f F K G K S r f F r >.~ L T e.q.0.9.V 6 = ",
"x.7.r.i.r.q.$.e.5.>.,.D ,.K.e.9.M.i.r.c.7.9.,.e.5.C.) T 5.9.5.&.2.#.$.3.3.s.2.&.L 3.e.9.Z.H.A.z.c.c.x.r.,.,.,.$.5.1.) I 9.T ` <.",
"(.^.].N.N.N.t.M.0.B.;XB.0.G.z.z.p.^.^.V.F.B.9.9.t.V.b.V.{.[.V.b.y.E.T.Q.W.OX~.V.(.|.{.^.(.|.W.N.N.V.G.H.9.1.5.9.| | { { B.(.(.+X",
"6 6 d y j 3 6 k V S H S F F F f K ! K F ~ / f e G +.K k &.L H S 5 8 g F K S J o.K J K F K ~ F &.R L F G f e r h K %.3 5 3 8 7 S ",
"G h k S L 3.- 4 3 p @ i O o.i.0.N.r.r.F.F.r.$.#.8.l.D.3.#.,.3.>.H k H L #.$.& X = 3 1 y & 2.F.0.r.r.Z.,.G =.K 2.i.{ <.r G L f z ",
"c.F.s.Z.b.9.S y 0 0 z c q 1.i.B.[.].[.W.y.].0.,.).[.].m.(.).W.W.H.z.M.J._.F.h d g h H z f c.|.W.XXy.p.y.y.n.{ q.L.f.5.) i.p.M.i.",
"n.^.G.N. .B.S d l l @.-.f e.p.0.r.M.G.}. .M.s., h f d F L.J.m.].t.9.t.N.^.G.F k ! K ! ! e r.).W.n.r.l.9.8.M.G w k 6 & z K.8.z.i.",
"u.0.i.i.9.A.f m z c g l w z.`.t.G.(.n.`.(.N.7.s.P.P.d._ _.(.t.[ n.B.W.V.V.B.! z z z O.z f r.}.J.^.M.M.r.0.r.,.4.d.P.7.U _.W.Q.n.",
"M.r. .}.G.9.F &.M c l z q 5._.r.r.M.F.r.{ 8.G D.N.i.0.{ G.(.(.^.(.G.`._.I.r.F O.! S K ~ F 9.V.B.e.5.,.3.R +.O.-.,.f.e.{ (.(.].V.",
"K K O.K k j * j y = 3 d - 7 V d 7 6 K H C ~ K 6 z h f S ~ L >.>.T L 2.H &.~ j j j j k a 6 h J f 3 d * d l z y & - h d w +.J K 5.",
"M.N.J.P U l.9.n.M.7.p.^.J._.p.z.{ 9.F 9.:XI.].].7.`.}.F.B.L.Y.M.W.(.`.7.v.I.J.F.V.V.J.B.B.V.^.V.N.8.P 8.}.J.N.G._ F.F.F.G.N.M.p.",
"b.i.F.D 3.3.r.| { 7._ 9.j.c.i.1.b.L.7.7._.^.).).c.].V.(.V.n.n.E.[.J.-X,.c.b.b.E.0.i.N.r.M.i.M.J.J.H.) 9.J.^.t.t.9.G.i.N.t.t.B.G.",
"&.X.o.6 3 d j 6 j j p 8 k 8 1 j f 8 6 k n +.H +.f +.K L +.H k H &.&.%.h d 6 f K 8 k H H k K n 8 k k f H L K S 6 f K k k f f -.X.",
"{.(.].(.J. X].^.(.{.n.N.(.(.|.t.B.(.J.i.0.B.N.V.G.F.R _ K.J.J.9.F.(._.L.Y._._.}.(.J.[.[.[.[.}.b.M.M.r.M.M.M.c.c.r.f.R P 9.e.r.R ",
"[.W.W.W.N.J.(.[.^.`.i.(.(.b.G._ M.J.V.r.0.J.V.W.(.Y.B.7.N.M.G.9.(.|.(.N.n.G./.(.(.J.I.I.].].J.9.8.0.| 7.9.| r.M.`.|.F.7.Z.e.1./ ",
"5.2.-.k 6 6 6 j K k d j k - s j 3 3 3 3 6 8 8 k S S G : H L H K G +.K k j K K H K o.F > H K S > 8 8 8 1 < & < 5 7 S H k j 6 m a ",
"F.F.9.G T ~ G F f f g * z ! h -.` 3.<.9.) ,._ ,.5X#X4X].(.{.W.].}.].z./ S S ) T T 3.T f 2.3.<.>.) ' ,.` ~ F G K `.(.(.[.J.i.M.i.",
"0.F.' Q 1.x.1.>._ e.<.I z.0.{ 7.x.z.0.z.z.F.Z.9.|.|.}.].J.J.(.I.^. Xc.,.>.3.s.e.8.B.9._ F.B.c.b.9.z.c.l.l.<.` ~ N.B.r.r.F.M.r.i.",
"t.G.0.| M.M.t.0.n.F.r.T e._ 9.l.z.0. . . .M.l.U ).(.V.W.).W.(.V.W.).8.R r.M.G.}.(.}.J.9.H.c.z.0.0.n.z.| _ ' U C 8.z.r.| z.0.9.r.",
"r.v.,.e._.`.N.t.E.F.F.,.l.l.z.z.l.c.z.B.l.l.x./ (.N.|.V.^.N.^.(.J. X0.r.].].W.R.(.^.J.8.c.l.m.b.B.M.0.` _ <.&.f i.i.N.r.r.0.t.8.",
"t.0.i.G._.8.t.G.n.G.K.P e.9.1.5.) ) 5._ ) 5.G S J.].].]._.].(.W.)._.0.J._.N.(.V.(.J.Y.) 9.7._ ' { 9.~ F L ) f g r.N.^.N.r.0.M.0.",
"3 y y y z z F K k -.O.& 6 6 6 - d 6 6 k 1 3 3 & H +.+.H k 8 k H d j 3 d F &.>.L R +.O.* 6 k k f 8 6 - - < j < < j y y < 3 2 2 y ",
"G G D I M.6X5X5X8X{.0.N.W.Q.W.N.n.(.(.(.| M.J.B.F.0.0.N.L.7.R | ,.Y R R ^.9X1X5X5X(.t.i.J.N.N.].^.n.0.z.R 8.7.{ ) ) _ _ e.T S G ",
"Z.J.H.^.].<X[.{.}._.8.G.(.(./.J.N.F.G.}.{ 9.c.K.J.Y.}.e.5.T r.K.L.c.9.{ ].6X[.{._.Y.q.e.J.(.}.].^.F.c.C.D >.,.3.q.d.i.7.#.V #.Z.",
"N.`.G._.(.`.(._.B.B.I M.}.V.W.[.(.^.(._.| H.V.].(.).[.V.}.H.B.n.J.G.P.M._.|.G.G.t.0.U c.J.n.N.^.^.(.F.M.U l.0.c.i.B.t.r.K.r.7.r.",
"m.W...m.B.}.I.J.n. XP.M.I.V.G.B.n.F.(.r.R ;X|.`.[.n.N.W.}.b.b.W.R.~.V.b.n.V.B.B.r.G.9.7.0.r.i.7.9.M.e.,.) Z.M.p.0.0. .b.M.) R M.",
"i._.G.L.J.J.Z.d.(.L.7._ 8.8.9.7.9.{ { q._ c.B.E.F.^.N.N.M.r.M.^.^.G.M.r.r.M.Z.F.F.H.,.,.,.' _ >.Z F R +.F 5.9.8.0.| | 0.r.,.{ 8.",
">.L F L K ~ S L G L f K k h k k O.+.K +.K #.,.R $.>.T o.+.K L >.>.K O.K k f ; z S K f 6 k K k 6 k K -.-.3 k F f k k H k k 6 H O.",
"_.7.z.z.0.B.0.l.z.z.0.z.n.t.c.' ~ <.! ~ &.&.<.>.&.` ` / 5.T _ n.i.R 0.e.r.{ ' / ) 5.` / ) 9.) ! ! *.^ ! h g l z m l x l z H 5.M.",
">.G ) 5.e.7.r.e.8.9.9.c.7.9.r.G k O.z z f z d d k g z d j 3 k 2.h.F ^ F ~ F ! ^ ~ L ) ) Q ) ) C < p j j 3 3 2 2 2 2 2 = p j O.) ",
"z.c.q.0.M.7.7.) / >.` ` ,.` ) h L F ~ +.>.Z.r.F.Z.c.0.1.5.,.,.r.5.>.3.#.q.L H H f H J H S K H J L L T >.L Z.C.e.c.z.c.x.A.c.M.n.",
"+X|.T.^.`.8.1.,.>.5.5.2.3.>.2.<.=.! ~ R R L.F.).W.W.B.n.M.B.m.B.F.i.m.N.G.9.F z x *.&.K x l c ;.^ F ! ) <. X#XXXXX+X.X.X<X|.[.[.",
"9.1.<.` >.f % 0 d 3 d d = d l l d s g g e 2.` ,.9.,.>.>.L +.>.#.,.R R I ' F =   & $ 7 d   o t y t # 2 y - +.R | r.,.>.>.5.2.R 4.",
"r.i.i.7.w.f.r.r.e.r.c.7.T ) I G q.Z.e.e.T ) ) ) 7.7.#.G R _ _ >.#.#.) R c.s.3.5.e.S.d.q.J f F L 5.>.&.2.L <.) 9.r.,.G R r.q.R >.",
"J.G.c.r.7.G.i.t.l.B.G.c.v.v.z.H.n.E.G.F.c.r.r.B.B.z.r.7.V.V.J.H.B.B.B.B.G.N.i.M.m.(.V.z.z.0.z.B.N.n.0.0.z.b.z.M.0.9.<.9.].^.z.e.",
"F k f z - h k d f S J H f K K L W F F h G G S D F K z 6 >.D L L J J O.F J K S K J K %.K H J +.L F F F L K S k H k l j 3 L D S k "
};
