/* XPM */
static char *sprite__1_1684718978[] = {
/* columns rows colors chars-per-pixel */
"86 64 239 2 ",
"   c #020003",
".  c #070208",
"X  c #37311B",
"o  c #7A0819",
"O  c #732A2F",
"+  c #423210",
"@  c #5B584A",
"#  c #686455",
"$  c #7B7B5E",
"%  c #736F52",
"&  c #6C6C6C",
"*  c #6D6966",
"=  c #70716F",
"-  c #747474",
";  c #7B7B7C",
":  c #76747A",
">  c #706E6D",
",  c #890205",
"<  c #9B0105",
"1  c #95010C",
"2  c #9C000A",
"3  c #840614",
"4  c #960313",
"5  c #9D0113",
"6  c #960417",
"7  c #A4010D",
"8  c #AA040C",
"9  c #B70209",
"0  c #A40215",
"q  c #AC0012",
"w  c #A5051A",
"e  c #B20113",
"r  c #BB0016",
"t  c #A5191A",
"y  c #A9221E",
"u  c #9C1726",
"i  c #A41824",
"p  c #A41932",
"a  c #A70421",
"s  c #9D2129",
"d  c #972F33",
"f  c #A5272F",
"g  c #C3010A",
"h  c #CE030C",
"j  c #C70103",
"k  c #D40105",
"l  c #D90105",
"z  c #D4010D",
"x  c #DB010D",
"c  c #D60808",
"v  c #C30212",
"b  c #CD0114",
"n  c #CD081B",
"m  c #D40214",
"M  c #DA0114",
"N  c #D40A13",
"B  c #DD0914",
"V  c #D4021A",
"C  c #DB021A",
"Z  c #DB091C",
"A  c #D6091B",
"S  c #D4101E",
"D  c #E1000D",
"F  c #EE0606",
"G  c #E20114",
"H  c #E4011B",
"J  c #EB0013",
"K  c #CF0824",
"L  c #DB0625",
"P  c #D71529",
"I  c #D0192C",
"U  c #E60222",
"Y  c #E01020",
"T  c #DC222F",
"R  c #D92835",
"E  c #CD2534",
"W  c #E22939",
"Q  c #AC3648",
"!  c #913D4A",
"~  c #DC344B",
"^  c #E63255",
"/  c #924D52",
"(  c #BD5D53",
")  c #B14B4D",
"_  c #847B59",
"`  c #B76243",
"'  c #987472",
"]  c #AA6A71",
"[  c #A85664",
"{  c #CE5254",
"}  c #E44A54",
"|  c #E85660",
" . c #D07277",
".. c #DB6766",
"X. c #7C805F",
"o. c #7B807A",
"O. c #888368",
"+. c #928E6C",
"@. c #96946C",
"#. c #978776",
"$. c #9A9676",
"%. c #B79175",
"&. c #B1AE7B",
"*. c #DB957A",
"=. c #C9A17E",
"-. c #7A7D84",
";. c #857E87",
":. c #91798A",
">. c #ED7C82",
",. c #7E878C",
"<. c #8D8E8E",
"1. c #858487",
"2. c #9A9A9A",
"3. c #968A8E",
"4. c #A38581",
"5. c #A39A89",
"6. c #AF9492",
"7. c #9EA681",
"8. c #ABA58A",
"9. c #ACA794",
"0. c #B0AD9A",
"q. c #B2AC95",
"w. c #B8B296",
"e. c #B7AF85",
"r. c #AAABAA",
"t. c #A5A7A5",
"y. c #B8B3A7",
"u. c #A8B2B1",
"i. c #B5B5B4",
"p. c #BBBABA",
"a. c #B8B7B7",
"s. c #B3AEAC",
"d. c #C5989A",
"f. c #D2888A",
"g. c #E78787",
"h. c #F28B96",
"j. c #E5989B",
"k. c #F19C9F",
"l. c #C3BB8C",
"z. c #C8BC99",
"x. c #DCB08D",
"c. c #EDB996",
"v. c #E298A7",
"b. c #C9A4A6",
"n. c #C6B9BB",
"m. c #C8AFB0",
"M. c #F4B2B5",
"N. c #B6C7BE",
"B. c #CBC393",
"V. c #CBC799",
"C. c #D3CD9C",
"Z. c #D7CD9A",
"A. c #D1CD96",
"S. c #D9D5A4",
"D. c #C4C4BB",
"F. c #CEC4A1",
"G. c #E3D8A6",
"H. c #F6DEB4",
"J. c #EFC9B0",
"K. c #EDE4AD",
"L. c #F2E6AC",
"P. c #F4EAAD",
"I. c #F9E9AD",
"U. c #F7F4AC",
"Y. c #F5ECB3",
"T. c #F9EDB4",
"R. c #F4EABA",
"E. c #FCECBA",
"W. c #F6E5B3",
"Q. c #FBF2B5",
"!. c #FEF4BB",
"~. c #FDFBBC",
"^. c #F6F5B7",
"/. c #EFE8B1",
"(. c #A4BDC1",
"). c #D0BFC5",
"_. c #F5B7C2",
"`. c #BED0DA",
"'. c #CDCCCC",
"]. c #C5C9C6",
"[. c #CECFD1",
"{. c #C7D8D7",
"}. c #D5D3D5",
"|. c #D5D6DA",
" X c #D5DADA",
".X c #DCDCDD",
"XX c #D8D9D4",
"oX c #CFD1CB",
"OX c #EECAC5",
"+X c #FAC4C8",
"@X c #F5D4CD",
"#X c #E9D8D5",
"$X c #F9D7D6",
"%X c #F6CAD9",
"&X c #D8E4DD",
"*X c #FCECC2",
"=X c #FEFCC3",
"-X c #FFFCCB",
";X c #F9F8C5",
":X c #E2E4DE",
">X c #E8E9DD",
",X c #D4DFE1",
"<X c #E6DDE4",
"1X c #F4D6E0",
"2X c #CEE3E1",
"3X c #DCEAE4",
"4X c #D7E6E5",
"5X c #DFF9F8",
"6X c #DCF4E8",
"7X c #E6E6E6",
"8X c #EAE3E4",
"9X c #E4EBE5",
"0X c #EAEAE6",
"qX c #E6E5EA",
"wX c #EBE5EB",
"eX c #E4EAEA",
"rX c #E8E8E8",
"tX c #F1E5EC",
"yX c #F6E9E8",
"uX c #E4F2EB",
"iX c #EAF6EC",
"pX c #F8F4EB",
"aX c #EAE5F0",
"sX c #EBEDF1",
"dX c #E3EAF2",
"fX c #F2ECF2",
"gX c #F7E7F5",
"hX c #ECF3F3",
"jX c #EBFAF5",
"kX c #EEFBFE",
"lX c #E9F4F8",
"zX c #F2F2F2",
"xX c #F3FCF5",
"cX c #FDFBF5",
"vX c #F5F2FB",
"bX c #FDF5FC",
"nX c #F4FEFD",
"mX c #FEFEFE",
"MX c #FFF6F4",
/* pixels */
"rXrXrXrXrXrXrX7XrXrXrXrXrXrXrXrXrXrXrXrXrXrXrXrXrXrXrXrXrXrX7XrXrXrXrXrXrXrXrXrXrXrXrXrXrXrXrXrXrXrXrXrX7XrXrXrXrXrXrXrXrXrXrXrXrXrXrXrXrXrXrXrXrX7XrXrXrXrX7XrXrXrXrXrXrXrX",
"rXrXrXrXrXrXrXrXrXrX7XrXrXrXrXrXrXrX7XrXrXrXrXrXrXrXrXrXrXrXrXrXrXrXrXrXrXrXrXrXrXrXrXrXrXrXrXrXrX7XrXrXrXrXrXrXrXrXrXrXrXrXrX7XrXrXrXrXrXrXrXrXrXrXrXrXrXrXrXrXrXrXrXrXrXrX",
"rXrXrXrXrXrXrX7XrXrXrXrXrXrXrXrXrXrXrXrXrXrXrX7XrXrXrX7XrXrXrXrXrXrXrX7XrXrXrX7XrXrXrXrXrXrXrXrXrXrXrXrXrXrXrXrXrXrX7XrXrXrXrXrX7XrXrXrXrXrXrXrXrXrXrXrXrXrXrXrXrXrXrXrXrXrX",
"rXrXrXrXrXrXrXrXrXrXrXrXrXrX7XrXrXrXrXrXrXrXrXrXrXrXrXrXrXrXrXrXrXrXrXrXrXrXrXrXrXrXrX0XrXrXrXrXrXrXrXrXrXrXrXrXrXrXrXrXrXrXrXrXrXrXrXrX7XrXrXrXrXrXrXrXrXrXrXrXrXrX7XrX7XrX",
"rXrXrXrXrXrXrXrXrXrX7XrXrXrXrXrXrXrXrX7XrXrXrXrXrXrXrXrXrXrXrXrXrXrX7XrXrXrXrXrXrXrXrXrXqX0XrXrX7XrX7XrXrXrXrXrXrXrXrXrXrX7XrXrXrXrXrXrXrX7XrXrXrXrXrXrX7XrX7XrXrXrXrX7XrXrX",
"rXrXrXrXrXrXrXrXrXrXrXrXrXrXrXrXrXrXrXrXrXrXrXrXrXrXrXrXrXrXrXrXrXrXrXrXrXrXrXrXrXrXrXrXrXeXrXrXrXrXrXrXrXrXrX7XrXrXrXrXrXrXrXrXrX7XrXrXrXrXrXrXrX7XrXrXrXrXrXrXrXrXrXrXrXrX",
"rXrXrXrXrXrXrXrXrXrXrXrXrXrXrX7XrXrXrX7XrXrX7XrXrX7XrXrXrXrXrXrXrXrXrXrXrXrX7XrXrXrXrXrXrXrX7XrXrXrXrXrXrXrXrXrXrXrXrXrXrXrXrXrXrXrXrXrXrXrXrXrXrXrXrXrXrXrXrXrXrXrXrXrXrXrX",
"rXrXrXrXrXrXrXrXrXrXrXrXrXrXrXrXrXrXrXrXrXrXrXrXrXrXrXrXrXrXrXrXrXrXrXrXrXrXrXrXqX0XrXrXrXrXeXqXrXrXrXrXrXrXrXrX7XrX7XrXrXrXrXrXrXrXrXrXrXrXrXrXrXrXrXrXrXrXrXrXrXrXrXrXrXrX",
"rXrXrXrXrXrXrXrXrXrXrXrXrXrXrXrXrXrXrXrXrXrXrXrX0XrXqXwXwXrXeX3X7XwXtXwXrX9X0X7XqX7X7X:X:X8X7X9XrX0X8X9XwXrX9X0XrXrX0XrXrXsXrXrXrXrX7XrXrXrXrXrXrXrXrXrXrXrXrXrXrX7XrXrXrXrX",
"rXrXrX7XrXrX7XrXrXrXrXrXrX7XrXrXrXrXrXrXrXrXrXrX8XhXeXrX0X7XyXtX>XuX7X7X7X8XhXlXlXnXnXlXlXkXvXgX7X8X4XsXeX8XfXqX7X7XrXrXrXrXrXrXrXrXrXrXrXrXrXrXrXrXrXrXrXrXrXrXrXrXrXrXrX7X",
"rXrXrXrXrXrXrXrX7XrXrXrXrXrXrXrX7XrXrXrX7XrXrXrXwX9XeXrX0XrX7X0XeX#X0XzXlXrX].m.%.] / [ ] 4.y.oX5XbXwX9XwXqX3X0XrXrX7XrXrX0XrXrXrXrXrXrXrXrXrX7XrXrXrXrXrXrXrXrXrXrXrXrXrXrX",
"rXrXrXrXrXrXrXrXrXrXrXrXrXrXrXrXrXrXrXrXrXrXrXrXdX0X>XrXeX3XeXeXqXzXuX{.6.[ 7 j 9 L W R S N 9 7 Q 6. XsXyX>X8X7XqXrXrXrXqXrXrX0XrXrXrXrXrXrXrXrXrXrXrXrXrXrXrXrXrXrXrXrXrXrX",
"rXrXrXrXrXrXrXrXrXrXrXrX7XrXrXrXrXrXrXrX7XrXrXrXqX8XrXiXeXaXaXqXjX X:.i z j W k.yXMXnXcXmXyXh.^ c g u ] {.nX4XgX:XrXrXqXrXeXrXrXrXrXrXrXrXrXrXrXrXrXrXrXrXrXrXrX7XrX7XrXrXrX",
"rX7XrXrX7XrXrXrX7XrXrXrXrXrXrXrXrX7XrXrXrXrXrXrX0XrX0XqXwXqXeXiX6.i k F C j.mXnXbXmXmXmXmXmXcXxXj.C c g p 6.hX0XrXrX7X0X0XrXqXrXrXrXrX7XrXrXrXrXrXrXrXrXrXrXrX7XrXrXrXrXrXrX",
"rXrXrXrXrXrXrXrXrXrXrXrXrX7XrXrXrXrXrXrXrXrXrXrX7XuX9XwX7XzX>X/ e x x K #XbXbXcXmXmXmXmXmXcXmXmXbX$XP x l g / &XrXsXrX7X0XrXrXrXrXrXrXrXrXrXrXrXrXrXrXrXrXrXrXrXrXrXrXrXrXrX",
"rXrXrXrXrXrXrXrXrXrXrXrXrXrXrXrXrXrXrXrXrXrXrXrXgX&XrX8XzXN.d m C G L OXcXxXmXmXmXcXmXmXmXmXbXmXmXmX+XK M B V f [.0XsXrXrXrXrXrXrXrXrXrX7XrX7XrXrXrXrXrXrXrXrX7XrXrXrXrXrXrX",
"7XrX7XrXrXrXrXrX7XrXrXrXrXrXrXrXrXqXrXrXqXrXrXrXeX<XwXzXD.3 V B G j v.mXxXmXmXbXmXmXmXmXmXmXmXmXmXbXmXj.x z L G t N.vXdX>XyX7X9XrXrX7XrXrXrXrXrXrXrXrXrXrXrXrXrXrXrXrXrXrXrX",
"rXrXrXrXrXrXrXrXrXrXrXrXrXrXrXrXrXrXrX0XrXrXrXrX0XrXjX].o n S m z W MXmXcXmXmXmXmXmXmXmXmXmXmXmXmXnXmXcXR N M z m p N.jX7X0XrX<XrXrXrXrXrXrXrXrXrXrXrXrXrXrXrXrXrXrX7XrXrX7X",
"rXrXrXrXrXrXrXrXrXrXrXrXrX7XrXrXrXrXrXrXrXrXrXrXrXeXoXO q Z V G M g.mXvXbXmXnXnXmXmXmXmXmXmXmXmXmXxXbXnXg.h M V G G i oXrX7XrXeXrXrXrXrXrXrXrXrXrXrX7XrXrXrX7XrXrXrXrXrXrXrX",
"rXrXrXrXrXrX7XrXrXrXrXrXrXrXrXrXrXrXrXrXrXrXrXrX0X6X/ 1 S n m x B @XnXmXmXmXkXmXmXmXmXmXmXmXmXmXmXmXmXnX#XH z C N x D / sXwX3XsXrXrXrXrXrXrXrX7XrXrXrXrXrXrXrXrXrXrXrXrXrXrX",
"rXrXrXrXrXrXrXrXrXrX7XrXrXrXrXrXrXrXrX7XrXrX7XrXtXt.[ q N M b x P pXmXmXmXmXmXmXmXmXmXmXmXmXmXmXbXmXmXmXMXP x M b B l  .(.yX7XrXrXrXrXrXqX0XrXrXrXrXrXrXrXrXrXrXrXrXrX7XrXrX",
"rXrX7XrXrXrXrXrXrXrXrXrXrXrXrXrXrXrX0XrXrXrXrXzXp.i.d.q B x C z R bXmXbXmXmXmXcXmXmXmXmXmXmXmXmXmXnXmXnXbXE x C L z D +X{.a.yX7XrXrXrX7XrXrXrXrXrXrXrXrXrXrXrXrXrXrXrXrXrXrX",
"rXrXrXrXrXrXrX7XrXrXrXrXrXrXrXrXrXrX7XrXqXrX0X7X2.,Xb.v N G C z T mXmXmXnXmXmXmXmXmXmXmXmXmXmXmXmXmXxXmXbX~ z C M m z OXmXt.3XtXqXrXrXrXrXrXrXrXrXrXrXrX7XrXrXrXrXrXrXrXrXrX",
"rXrXrXrXrXrXrXrXrXrXrXrXrX7XrX7XrXhXqX0XqXrX0Xi.i.<Xs.V l C V x S fXmXcXmXmXmXnXmXmXmXmXmXmXmXmXmXbXmXnXyXY l m m H V OXmX#Xa.jX0XrXrXrXrXrXrXrXrX7XrXrXrXrXrXrXrXrXrXrXrXrX",
"rXrXrX7XrXrX7XrXrXrXrXrXrXrXrXrXrXrX0XrXrXrX7X2.|.|.m.C m D V C M J.mXcXmXnXmXmXmXmXmXmXmXmXmXmXmXmXmXxXJ.V C x C N k 1XbXmXu.:X0XqXwXrXrXrXrXrXrX7XrXrXrXrXrXrXrXrXrXrXrXrX",
"rXrXrXrXrXrXrXrXrXrXrXrXrXrXrXrXrXrXrXrX7XzX].r.|. Xb.M V z V C M  .mXzXmXbXmXnXmXmXmXmXnXmXmXmXmXmXvXmX .l h L C z x %XmXmX[.D.hXrXrXrXrXrXrXrXrXrXrXrXrXrXrXrXrXrXrXrXrX7X",
"rXrXrXrXrXrXrXrXrXrXrX7XrXrXrXrXrXrXrXrX7XfXt.].}.2Xd.C C m m M l L yXnXmXcXnXcXnXmXmXmXmXnXmXmXnXbXmXyXU D G V C x l _.mXmXvXr.0X0XrXrXrXrX7XrXrXrXrXrX7XrXrXrX7XrXrXrXrXrX",
"rXrXrXrXrXrXrXrXrXrXrXrXrXrX7XrX0XrXrXrXqXqX2..X[.2Xf.x C z M M C l | mXnXcXmXmXmXmXbXmXmXmXmXmXmXbXmX{ D V V B V C z k.xXcXmXi..XrXrXrXrXrXeXrXrXrXrXrXrXrXrXrXrXrXrXrXrXrX",
"rXrXrXrX7XrX7XrXrXrXrXrXrXrXrXrXrXrXrXrXfXoXt..X}.,X .b C b C M H b m g.mXbXbXmXmXmXcXmXnXmXbXmXxXmXh.M x H V l m Z k >.mXcXmX].oXzX0XrXrXrXrXrXrXrXrXrXrXrXrXrXrXrXrXrXrXrX",
"rX7XrXrXrXrXrXrXrXrXrXrXrXrXrXrX0XrXqX7XzXp.a. X}.|.) h C m C m z U x l g.bXnXmXcXmXmXmXbXmXmXmXcX .g B V C G M m A m } mXmXmX Xp.hXqXrXrXrXrXrXrXrX7XrXrXrXrX7XrXrXrXrXrXrX",
"rXrXrXrXrXrXrXrXrX7XrXrXrXrXrXrX0X0XqX7XzXa.p.|.|.'.p j C M C z m C B x b ~ @XcXmXmXbXnXmXmXyX@X} M N G m v N m M V M T MXmXmX7Xa.zX7XrXrXrX7XrXrXrXrXrXrXrXrXrXrXrXrXrXrXrX",
"rXrXrXrXrXrXrXrXrXrXrXrX7XrXrXrX0X7XrXrXzXp.a. X|.n.6 9 C M M z M z C V B k Z ^ j.M.$X$XJ.h.} b z M G m M M x V x V M b $XcXmX8Xa.fX7XrXrXrX7XrXrXrXrXrXrXrXrXrX7XrX7XrXrXrX",
"rXrXrXrXrXrX7XrX7XrXrXrXrXrXrXrXwXrXtX3XsXs.a.}.2X .7 w b C k m V L M M B m M x l l C M l l M M Z m m m m M C M H b c l h.mXmX7Xp.pX<XrXrXrXrXrXrXrXrXrXrXrXrXrXrXrXrXrXrXrX",
"rXrXrX7XrXrXrXrXrXrXrXrXrXrXrXrXeX7X>XrXvX).(.}.{.Q 2 1 r H C m B k m M m M V V N V V m N z z Z m M G C M M m A M m B c R nXmXXXN.zX7XrXrXrXrXrXrXrXrXrXrXrXrXrX7XrXrXrX7XrX",
"rXrXrXrXrXrXrXrXrXrXrXrX7XrXrXrXeXrXyXtXvX].r.4Xd.5 5 2 5 b H z M M M m b m B M m C C m M m M m V C m m C C z m m G m V m M.nX].'.sXrXrXrXrXrXrXrXrXrXrXrXrXrXrXrXrXrXrXrXrX",
"rXrXrXrXrXrXrXrXrXrXrXrXrXrXrXrXwXrX<X8XqX,Xt.#Xf < 5 0 4 q n M b C m C M B m z V m k A Z Z C l b C M C M m B B N M C C N E MXn..XrXrXrX7XrXrXrXrXrXrXrXrX7XrXrXrXrXrXrXrXrX",
"rX7XrXrXrXrXrXrXrXrXrXrXrXrXrXrXrXeXrXiXrXiX5.Q 5 0 5 6 0 5 w m H z m S r r q q 7 7 < < < 8 r r C m C C M m V z z C G z z G } r.rXrX7XrXrXrXrXrXrXrXrXrXrXrXrXrXrXrXrXrXrXrX",
"rXrXrXrXrXrXrXrXrXrXrXrXrXrXrXrXwXqX0X4X>XzXp.o q 5 w 4 5 4 1 e b r 1 , < < y d ) { ( ( { ) f u 7 < 9 g V C M M Z V z M M D 8 u.fXrX7XrXrXrXrXqXrXrXrXrXrXrXrXrXrXrXrXrXrXrX",
"rXrXrXrXrX7XrXrXrXrXrX7XrXrXrXrX8XwXtX9XwXrX#X# 2 6 w 5 4 5 0 4 4 1 i { *.G.R.-X~.~.~.~.^.~.-X*XJ.x.` t e g m Z V M M C V m ) uXrXrXrXrXrXrX7XrXrX7XrXrXrXrXrXrXrXrXrXrXrXrX",
"rXrXrXrXrXrXrXrXrXrXrXrXrXrXrXrX9XrXeXeXwX<XbXm.o a 6 q 7 0 0 1 u *./.;X;Xz.+ z.!.W.E.T.P.~.z.X &.-X*XH.*.y v C m x m M B q p.sX7XrXrXrXrXrXrX7XrXrXrXrXrX7XrXrXrX7XrX7XrXrX",
"rX7XrXrX7XrXrXrXrXrXrXrXrXrXrXrXrXqXrX0XrXqXrXxX3.3 7 , q 0 5 ( l.S.!./.U.+.;.$.~.R.T.T.W.=X$.,.O.!.L.^.=X*X` m G N V H 9 %.5XaXrXrXrXrXrXrXrXrXrXrXrXrXrXrXrXrXrXrXrXrXrXrX",
"rXrXrXrXrXrXrXrXrXrX7XrXrXrXrXrX0XrXrXrXsXrX7XrX0X' , e w 1 ) C.A.B.!.Y.U.$.<.$.~.K.E.T.Q.~.@.1.$.~.T.L.T.R.E.` m m G 9 ] hX8X<XrXrXrXrX7XrXrXrXrXrXrXrXrXrXrXrXrXrXrXrXrXrX",
"rXrXrXrX7XrXrXrXrXrXrXrXrXrXrXrXrXrXrXrXrXrXrXwXfXuX' 3 5 5 =.Z.l.S.E.Y.~.O.  @.=XR.!.T.K.~.@.  X.=XL.E.W.^.~.c.M J e #.uXwXwXtXrXrXrXrXrXrXrXrXrXrXrXrXrXrXrX7XrX7XrXrX7XrX",
"rXrXrXrXrXrXrXrXrXrXrXrXrXrXrXrXqXrX0XrXrXrXrXrXwXrXmXi.O 3 =.A.B.S.E./.~.O.  +.=XR.K.Q.!.~.@.  X.-XR.E.I.E.^.c.g d a.lXwX:X7XeX7XrXrXrXrXrXrXrXrX7XrX7XrXrXrXrXrXrXrXrXrXrX",
"rXrXrXrXrXrXrXrXrXrXrXrXrXrXrXrXrXrX7X7XrXrXrXrX0X3X<XhXpX$.8.C.B.C.E./.;X#.  +.=X/.!.P.K.-X$.. _ =XK.^.!.W.~.c.#.uXzX0XlXeX9XrXrXrXrXrX7XrXrXrXrXrXrXrXrXrXrXrXrXrXrXrXrXrX",
"7XrXrXrXrXrXrXrXrXrXrXrXrXrXrXrXrXrX7X8X7X7XrXrX:XqXwXsXyXD.8.Z.B.A.!.W.=X_ . @.=XY.T.T.R.=X+.  _ =XR.Y.W.T.^.B.{.iX3XrX>XqXwX>XrXrXrXrXrXrXrXrXrXrXrXrXrXrXrXrXrXrXrXrXrXrX",
"rXrXrXrXrX7XrXrXrXrXrXrXrXrX0XsXrXsXzXzXzXrXrXrXeX&X3X<XfXn.8.Z.B.C.!.R.!.S.% S.!./.R.!.W.^.K.$ S.^.!.R.T.I.!.F.).bX<X0XsXwX0XwXrX7XrXrXrXrXrXrXrXrXrXrXrXrXrXrXrXrXrX7XrXrX",
"rXrXrXrXrXrXrXrX7XrXrXrXrXrXrXrX7XoXp.t.2.<.1.1.,.' ; -.,.* 7.Z.V.V.I.T.Y.!.-XQ.Y.E.E.P.!.P.U.;X*XI.E.T.^.E.!.z.].eXrXrX7XrXwX0XrXrXrXrXrXrXrXrXrX7XrXrX7XrXrXrXrXrXrXrXrXrX",
"rXrXrXrXrXrXrXrX0XrXrXrXrXrX.Xt.; - & & & & = & = = = - : # $.V.B.B.P.Q.Y.Q.K.^.T.T.T.T.T.Y.T.Y.P.Q.E.P.T.T.*Xl.}.7XrXrXrXrXrXrXrXrXrXrXrXrXrXrX7XrXrXrXrXrXrXrXrXrX7XrXrXrX",
"rXrXrXrXrXrXrXrX7XrXrX7XrXzX'.& & & - ; - - - : ; & - = : * # G.F.z.G.Q.P.Y.Q.P.T.T.E.T.T.T.Y.Y.Y.R.T.Q.L.Y.;X9.7XqXrXrXrXrXrXrXrXrXrXrXrX7XrXrXrXrXrXrXrXrXrXrXrXrXrXrXrX7X",
"rXrXrXrXrXrXrXrXrXrXrXrXrX7XwX.Xt.<.- & & & & * & = - - : - # 7.S.B.B.I.!.Y.!.Y.T.T.Y.T.T.T.P.Q.T.E.E.T.U.~.w.].fXrXrXrXrXrXrXrXrXrXrXrXrXrXrXrX7XrXrXrXrX7XrXrXrXrXrXrXrXrX",
"rXrXrX7X7XrXrXrXrXrXrXrXrXrXrX7XzXrX.X'.a.t.2.<.1.; = & = - = @ &.S.B.B.T.!.Y.!.E.T.E.E.E.T.E.E.P.Q.Y.Q.~.V.0.rXrX0XrXrXrXrXrXrX7XrXrXrXrXrXrXrXrXrXrXrXrXrXrXrXrXrXrXrXrXrX",
"rXrXrXrXrXrXrXrXeXrXrXrXrXrXrXrXrXrXrXzX0XzX0XqXaX7X|.r.<.- - & @ ' w.B.V.G.!./.I.T.Y.T.Q.Y.T.Q.Q.P.W.S.w.s.fXaXrXrXrXrXrXrXrXrXrXrXrXrXrX7XrXrXrXrXrXrXrXrXrXrXrXrX7XrXrXrX",
"rXrXrXrXrXrXrXrX0X7XrXrXrXrX7XrXrXrXrXrXrXrXrXrXqXeX0XhX0X.X}.}.].s.9.2.5.8.8.w.0.0.0.0.0.0.0.0.y.9.0.y.'.lXeXrXrXrXrX7XrXrXrXrXrXrXrXrXrXrXrXrXrXrXrX7XrXrXrXrXrXrXrXrXrXrX",
"rXrX7XrXrX7XrXrXrXrX0XrXrXrXrXrXrXrXrXwXrX0XrX7XrX0XqXsXeXrXsXrXsXzXxXsXqXwXqXeXrXrX7XrXeXrX7XrXwXqXbX0XzXrX>X>XrXrXrXrXrXrXrXrXrX7XrXrXrXrXrXrXrXrXrXrXrXrXrXrXrXrXrXrXrXrX",
"rXrXrXrXrXrXrXrXrXqXrXrXrXrXrXrXrXrXrXrXeXrXrX7X9X7XrXqXrX0X7XrX3XeX7X7XiXrXqXeXrXrXrXrXrXrX7XrX7X9X9X7X0X0XrXaXrXrXrXrXrXrXrXrXrXrXrXrXrXrXrXrXrXrXrXrXrXrX7XrXrXrXrXrXrXrX",
"rXrXrXrXrXrXrXrXrXrXrXrXrXrXrXrXrXrXrXrXrXrXrXrXrXrXrXrXrXrXrXrX0X0XrXrXrXrXrX0XrXrX7XrXrXrXrXrXrXrXrXrXrXrXrX7XrXrXrXrXrXrXrXrXrXrXrXrXrXrXrXrXrXrXrXrXrXrXrXrXrXrXrXrX7XrX",
"rXrXrXrXrXrXrXrXrXrXrXrXrXrXrXrXrXrXrXrXrXrXrXrXrXrXrXrXrXrXrXrX0XqXrXrXrXrXrXrXrXrXrXrXrXrXrXrXrXrXrX7XrXrXrXrXrXrXrXrXrXrXrXrXrXrXrX7XrXrXrXrXrXrXrXrXrXrXrXrXrX7XrXrXrXrX",
"7XrXrXrXrX7XrXrXrXrXrXrX0XrXrXrX7XrXrXrX7XrXrXrXrXrXrXrXrXrXrX7XqXqXrXrXrXrXrXrXrXrXrXrXrXrXrX7XrXrXrXrXrXrXrXrXrXrXrXrXrXrXrXrXrXrXrXrXrXrXrX7XrXrXrXrXrXrXrXrXrXrXrXrXrXrX",
"rXrXrXrXrXrXrXrXrXrXrXrXqXrXrXrXrXrXrXrXrXrXrXrX7XrX7XrXrXrXrXrX0XqXrXrXrXrXrXrXrXrXrXrXrXrXrXrXrXrXrXrXrXrXrXrXrXrXrXrXrXrX7XrXrXrXrX7XrXrXrXrXrXrXrXrXrXrXrXrXrXrXrXrXrXrX",
"rXrXrXrXrXrXrX7XrXrXrXrXrXrXrX7XrXrXrXrX7XrXrXrXrXrXrXrXrXrXrXrXrXrXrXrXrXrXrXrXrXrXrXrXrXrXrXrXrXrXrXrXrXrXrXrXrXrXrXrXrXrXrXrXrXrXrXrXrXrXrXrXrXrXrX7XrXrXrXrXrXrXrXrXrXrX",
"rXrXrXrXrXrXrXrXrXrXrXrXrXrXrXrXrX7XrXrXrXrXrXrXrXrXrXrXrXrXrXrXrX7XrXrXrXrXrXrXrXrXrX7XrXrXrXrXrX7XrXrXrXrXrXrXrX7XrXrXrXrXrXrXrXrXrXrXrXrXrXrXrXrXrXrXrXrXrXrXrXrXrXrXrXrX",
"rXrXrXrXrXrXrX7XrXrXrX7XrXrXrXrXrXrXrXrXrXrXrXrXrX7XrXrX7XrXrXrXrXrXrXrXrXrXrXrXrXrXrXrXrXrXrXrXrXrXrXrXrX7XrXrXrXrXrXrXrXrXrXrXrXrX7XrXrXrXrX7XrXrXrXrXrXrXrXrX7XrXrXrX7XrX",
"rXrXrX7XrXrXrXrXrXrXrXrXrXrXrXrXrXrXrXrXrXrXrXrXrXrXrXrXrXrXrXrXrXrXrXrXrXrXrXrXrXrXrXrX7XrX7XrXrXrXrXrXrXrXrXrXrXrXrXrXrXrXrX7XrXrXrXrXrXrXrXrXrXrXrXrXrXrXrXrXrXrXrXrXrXrX"
};
